# xmcd
#
# Track frame offsets:
# 150
# 26712
# 43632
# 84103
# 97660
# 129700
# 153340
# 175513
#
# Disc length: 2562 seconds
#
# Revision: 0
# Processed by: cddbd v1.5.1PL0 Copyright (c) Steve Scherf et al.
# Submitted via: Audion 3.0.2 (http://www.panic.com/audion/)
#
DISCID=4f0a0008
DTITLE=Globi - De Globi im Wältruum
DYEAR=1900
DGENRE=
TTITLE0=De Globi und de Hans gsehnd es Ufo lande
TTITLE1=De Herr Schneck sttigt us
TTITLE2=De Globi staret in Wältruum
TTITLE3=Landig uf em Plantet Schnix-Oepsilon-Zeta
TTITLE4=Abentür uf de Riesewise
TTITLE5=De Globi im Spinnenetz
TTITLE6=Bim Profässer Gastropodus im Museum
TTITLE7=Kampf mit em Chäfer und Heiflug dur dä Wältruum
EXTD=
EXTT0=
EXTT1=
EXTT2=
EXTT3=
EXTT4=
EXTT5=
EXTT6=
EXTT7=
PLAYORDER=
